<svg id="图层_1" data-name="图层 1" xmlns="http://www.w3.org/2000/svg" viewBox="0 0 60.82 16.91"><defs><style>.cls-1{fill:#00abed;}.cls-2{font-size:10.67px;font-family:MicrosoftYaHei, Microsoft YaHei;}.cls-3{letter-spacing:-0.07em;}.cls-4{letter-spacing:0em;}.cls-5{font-size:4.15px;font-family:MicrosoftYaHeiLight, Microsoft YaHei;}.cls-6{letter-spacing:-0.02em;}.cls-7{letter-spacing:0em;}.cls-8{letter-spacing:-0.03em;}.cls-9{letter-spacing:0.03em;}</style></defs><title>产品</title><path class="cls-1" d="M12.58,9.21v-6c0-.2,0-.25.23-.25a4.52,4.52,0,0,0,.64-.12l.47-.06.73-.1.7-.11.7-.1.76-.12h0l.7-.08c.23,0,.45-.08.67-.12h0L19,2l.67-.11.11,0,.92-.13.48-.06a1.8,1.8,0,0,1,0,.22v4.3c0,.93,0,1.85,0,2.77a1.77,1.77,0,0,1,0,.23C21,9.26,12.75,9.27,12.58,9.21Z" transform="translate(-5.38 -1.69)"/><path class="cls-1" d="M12.58,10l.28,0h8.28a2.46,2.46,0,0,1,0,.26v7.09c0,.14,0,.16-.16.13l-.08,0-.75-.08-.66-.11h-.05l-.75-.09-.7-.1L17.47,17l-.75-.1-.79-.12h0l-.73-.09-.71-.12h0l-.75-.08L13,16.37H12.8c-.22,0-.22,0-.22-.24V10Z" transform="translate(-5.38 -1.69)"/><path class="cls-1" d="M11.82,16.22l-.27,0-.9-.14L9.92,16H9.87l-.77-.09-.67-.12h0l-.74-.09-.73-.11h0l-.72-.08-.58-.08-.17,0c0-.18,0-5.2,0-5.34h.14c1.58,0,3.17,0,4.75,0h1.3c.22,0,.23,0,.23.23,0,.92,0,1.84,0,2.75v2.89C11.83,16,11.82,16.08,11.82,16.22Z" transform="translate(-5.38 -1.69)"/><path class="cls-1" d="M5.42,9.3c0-.22,0-5.16,0-5.3l.14,0,.74-.13h0L7,3.77l.64-.11.65-.09.73-.11c.28,0,.56-.07.84-.12l.72-.12h.09l.68-.08.31-.06h.11a2.65,2.65,0,0,1,0,.27v5.9l-.21,0H10.39l-4.74,0Z" transform="translate(-5.38 -1.69)"/><text class="cls-2" transform="translate(18.85 14.18)">Hype<tspan class="cls-3" x="26.78" y="0">r</tspan><tspan class="cls-4" x="30.13" y="0">-V</tspan></text><text class="cls-5" transform="translate(18.85 4.27)">Mic<tspan class="cls-6" x="6.65" y="0">r</tspan><tspan class="cls-7" x="8.04" y="0">os</tspan><tspan class="cls-8" x="12.3" y="0">o</tspan><tspan class="cls-9" x="14.7" y="0">f</tspan><tspan x="16.06" y="0">t</tspan></text></svg>