<svg id="图层_1" data-name="图层 1" xmlns="http://www.w3.org/2000/svg" viewBox="0 0 200 200"><defs><style>.cls-1{fill:#47bf8a;}.cls-2{fill:#cfcfcf;}</style></defs><title>部分</title><path class="cls-1" d="M102.44,0a100,100,0,1,0,100,100A100,100,0,0,0,102.44,0Zm55.08,74.18-68.2,68a7.25,7.25,0,0,1-10.25,0L49.26,112.45a7.2,7.2,0,0,1,0-10.18l0,0a7.25,7.25,0,0,1,10.25,0L84.2,126.85,147.26,64a7.24,7.24,0,0,1,10.3,10.18l0,0Z" transform="translate(-2.44)"/><path class="cls-1" d="M89.33,142.16a7.25,7.25,0,0,1-10.25,0L49.26,112.45a7.2,7.2,0,0,1,0-10.18l0,0a7.27,7.27,0,0,1,10.25,0L84.2,126.85l18.24-18.19V0a100,100,0,0,0,0,200V129.09Z" transform="translate(-2.44)"/><path class="cls-2" d="M202.44,100a100,100,0,0,0-100-100V108.66L147.26,64a7.24,7.24,0,0,1,10.3,10.18l0,0h0l-55.08,54.92V200A100,100,0,0,0,202.44,100Z" transform="translate(-2.44)"/></svg>