<?xml version="1.0" standalone="no"?><!DOCTYPE svg PUBLIC "-//W3C//DTD SVG 1.1//EN" "http://www.w3.org/Graphics/SVG/1.1/DTD/svg11.dtd"><svg t="1598432119375" class="icon" viewBox="0 0 1024 1024" version="1.1" xmlns="http://www.w3.org/2000/svg" p-id="16429" xmlns:xlink="http://www.w3.org/1999/xlink" width="200" height="200"><defs><style type="text/css"></style></defs><path d="M720.83 168.86c22.71 0 40.06 3.15 52.1 9.44 12.02 6.29 22.37 18.4 31.04 36.29 119.54 260.97 182.96 395.39 145.78 337.46 2.33 3.65 4.32 7.62 6.01 11.93 1.65 4.31 2.83 9.44 3.5 15.4s1 14.25 1 24.86c0 7.95-0.16 20.22-0.51 36.78-0.33 16.57-0.49 34.11-0.49 52.68v94.43c0 18.56-5.52 34.29-16.54 47.22s-26.88 19.38-47.58 19.38h-769.4c-19.37 0-34.05-6.13-44.07-18.38-10.02-12.27-15.36-28-16.03-47.22v-34.79c0-15.25 0.16-31.48 0.51-48.71 0.33-17.22 0.49-34.46 0.49-51.69v-41.75c0-11.26 0.16-20.2 0.51-26.84 0.33-6.62 1.16-12.42 2.5-17.39 1.33-4.98 2.83-10.11 4.5-15.42 1.13-3.59 13.11-33.61 20.55-50.19 70.44-157.3 128.23-289.77 128.23-289.77 8.68-17.22 19.37-28.82 32.06-34.79s27.72-8.95 45.07-8.95h420.77z m179.83 447.83c0-20.29-9.38-30.43-28.15-30.43l-711.84 1.01c-11.41 0-20.11 3.21-26.15 9.63-6.02 6.43-9.04 14.7-9.04 24.86v144.05c0 8.11 2.18 14.87 6.53 20.28 4.35 5.41 11.23 8.13 20.61 8.13l715.87 1.01c13.4 0 22.11-3.22 26.14-9.65 4.03-6.43 6.04-14.37 6.04-23.84V616.69zM304.51 213.56c-8.54 0-15.72 2.86-21.52 8.57-5.8 5.71-8.71 12.78-8.71 21.2s2.91 15.49 8.71 21.2c5.8 5.73 12.97 8.57 21.52 8.57 8.56 0 15.58-2.85 21.07-8.57 5.5-5.71 8.25-12.78 8.25-21.2s-2.74-15.49-8.25-21.2c-5.49-5.7-12.51-8.57-21.07-8.57z m-74.79 223.66c-8.42 0-15.49 2.86-21.22 8.57-5.71 5.71-8.57 12.78-8.57 21.2s2.86 15.49 8.57 21.22c5.73 5.71 12.79 8.56 21.22 8.56 8.44 0 15.51-2.85 21.23-8.56 5.71-5.73 8.57-12.79 8.57-21.22 0-8.42-2.86-15.49-8.57-21.2-5.73-5.71-12.79-8.57-21.23-8.57z m462.23-193.88c0 8.42 2.74 15.49 8.25 21.2 5.5 5.73 12.52 8.57 21.07 8.57 8.54 0 15.72-2.85 21.53-8.57 5.8-5.71 8.69-12.78 8.69-21.2s-2.89-15.49-8.69-21.2c-5.82-5.71-12.99-8.57-21.53-8.57-8.54 0-15.57 2.86-21.07 8.57-5.51 5.71-8.25 12.77-8.25 21.2z m74.3 223.65c0 8.42 2.92 15.49 8.77 21.22 5.84 5.71 13.06 8.56 21.68 8.56 8.6 0 15.69-2.85 21.22-8.56 5.53-5.73 8.3-12.79 8.3-21.22 0-8.42-2.77-15.49-8.3-21.2-5.53-5.71-12.61-8.57-21.22-8.57-8.62 0-15.83 2.86-21.68 8.57s-8.77 12.78-8.77 21.2zM259.48 765.45h-29.66V631.29h29.66v134.16z m89.52 0h-29.66V631.29H349v134.16z m89.59 0h-30.12V631.29h30.12v134.16z m89.06 0H498V631.29h29.66v134.16z m89.73 0h-29.66V631.29h29.66v134.16z m89.21 0h-29.67V631.29h29.67v134.16z m89.78 0h-30.13V631.29h30.13v134.16z" p-id="16430" fill="#3673ff"></path></svg>