<?xml version="1.0" standalone="no"?><!DOCTYPE svg PUBLIC "-//W3C//DTD SVG 1.1//EN" "http://www.w3.org/Graphics/SVG/1.1/DTD/svg11.dtd"><svg t="1598432318918" class="icon" viewBox="0 0 1024 1024" version="1.1" xmlns="http://www.w3.org/2000/svg" p-id="22459" xmlns:xlink="http://www.w3.org/1999/xlink" width="200" height="200"><defs><style type="text/css"></style></defs><path d="M890.88 303.2064a34.7136 34.7136 0 0 0-0.8192-4.5056A36.1472 36.1472 0 0 0 880.64 282.624L739.2256 140.8a35.84 35.84 0 0 0-25.088-10.24H288.768a35.4304 35.4304 0 0 0-24.9856 10.24L121.9584 282.624a36.1472 36.1472 0 0 0-8.704 16.0768 34.7136 34.7136 0 0 0-0.8192 4.5056 31.9488 31.9488 0 0 0-0.9216 4.5056v500.4288a102.4 102.4 0 0 0 102.4 102.4h575.3856a102.4 102.4 0 0 0 102.4-102.4V307.712a35.1232 35.1232 0 0 0-0.9216-4.5056zM409.6 794.4192l54.6816-168.5504-102.4-14.1312L600.4736 399.36l-60.2112 172.7488 100.5568 12.288z m-183.808-522.24l77.5168-81.2032H699.392l79.36 81.2032z m0 0" p-id="22460" fill="#3673ff"></path></svg>