<?xml version="1.0" standalone="no"?><!DOCTYPE svg PUBLIC "-//W3C//DTD SVG 1.1//EN" "http://www.w3.org/Graphics/SVG/1.1/DTD/svg11.dtd"><svg t="1598432037104" class="icon" viewBox="0 0 1024 1024" version="1.1" xmlns="http://www.w3.org/2000/svg" p-id="11557" xmlns:xlink="http://www.w3.org/1999/xlink" width="200" height="200"><defs><style type="text/css"></style></defs><path d="M984.615385 433.230769h-118.153847a39.384615 39.384615 0 0 0-39.384615 39.384616v157.538461a39.384615 39.384615 0 0 0 39.384615 39.384616h118.153847v275.692307a78.769231 78.769231 0 0 1-78.769231 78.769231H118.153846a78.769231 78.769231 0 0 1-78.769231-78.769231V78.769231a78.769231 78.769231 0 0 1 78.769231-78.769231h589.824L984.615385 316.928V433.230769zM157.538462 748.307692a39.384615 39.384615 0 0 0-39.384616 39.384616v118.153846a39.384615 39.384615 0 0 0 39.384616 39.384615h551.384615a39.384615 39.384615 0 0 0 39.384615-39.384615v-118.153846a39.384615 39.384615 0 0 0-39.384615-39.384616H157.538462zM157.538462 78.769231a39.384615 39.384615 0 0 0-39.384616 39.384615v236.307692a39.384615 39.384615 0 0 0 39.384616 39.384616h39.384615a39.384615 39.384615 0 0 0 39.384615-39.384616V118.153846a39.384615 39.384615 0 0 0-39.384615-39.384615H157.538462z m236.307692 0a39.384615 39.384615 0 0 0-39.384616 39.384615v236.307692a39.384615 39.384615 0 0 0 39.384616 39.384616h39.384615a39.384615 39.384615 0 0 0 39.384616-39.384616V118.153846a39.384615 39.384615 0 0 0-39.384616-39.384615H393.846154z m236.307692 0a39.384615 39.384615 0 0 0-39.384615 39.384615v236.307692a39.384615 39.384615 0 0 0 39.384615 39.384616h39.384616a39.384615 39.384615 0 0 0 39.384615-39.384616V118.153846a39.384615 39.384615 0 0 0-39.384615-39.384615h-39.384616z" fill="#3673ff" p-id="11558"></path></svg>