<?xml version="1.0" standalone="no"?><!DOCTYPE svg PUBLIC "-//W3C//DTD SVG 1.1//EN" "http://www.w3.org/Graphics/SVG/1.1/DTD/svg11.dtd"><svg t="1598432280156" class="icon" viewBox="0 0 1024 1024" version="1.1" xmlns="http://www.w3.org/2000/svg" p-id="20216" xmlns:xlink="http://www.w3.org/1999/xlink" width="200" height="200"><defs><style type="text/css"></style></defs><path d="M291.84 204.8l220.16 35.84c25.6 5.12 40.96 30.72 40.96 56.32-5.12 20.48-25.6 40.96-40.96 40.96l-220.16 35.84v76.8c0 20.48-25.6 30.72-35.84 15.36L107.52 307.2c-5.12-10.24-5.12-25.6 0-35.84L256 107.52c15.36-15.36 35.84-5.12 35.84 15.36V204.8z m440.32 445.44v-76.8c0-20.48 25.6-30.72 35.84-15.36l148.48 163.84c10.24 10.24 10.24 25.6 0 35.84L768 916.48c-15.36 15.36-35.84 5.12-35.84-15.36V819.2l-220.16-30.72c-20.48-5.12-35.84-20.48-40.96-40.96 0-30.72 20.48-56.32 40.96-61.44l220.16-35.84z" fill="#3673ff" p-id="20217"></path><path d="M680.96 179.2h112.64c30.72 0 56.32 25.6 56.32 56.32v112.64c0 30.72-25.6 56.32-56.32 56.32h-112.64c-30.72 0-56.32-25.6-56.32-56.32V230.4c0-30.72 25.6-51.2 56.32-51.2M230.4 624.64h112.64c30.72 0 56.32 25.6 56.32 56.32v112.64c0 30.72-25.6 56.32-56.32 56.32H230.4c-30.72 0-56.32-25.6-56.32-56.32v-112.64c5.12-30.72 25.6-56.32 56.32-56.32" fill="#3673ff" p-id="20218"></path></svg>