<?xml version="1.0" standalone="no"?><!DOCTYPE svg PUBLIC "-//W3C//DTD SVG 1.1//EN" "http://www.w3.org/Graphics/SVG/1.1/DTD/svg11.dtd"><svg t="1598432162510" class="icon" viewBox="0 0 1024 1024" version="1.1" xmlns="http://www.w3.org/2000/svg" p-id="18777" xmlns:xlink="http://www.w3.org/1999/xlink" width="200" height="200"><defs><style type="text/css"></style></defs><path d="M511.763 118.516c251.906 0 453.235 200.763 453.235 451.71 0 250.759-201.522 451.523-453.235 451.523-251.905 0-453.239-200.764-453.239-451.523 0-250.948 201.334-451.71 453.239-451.71m226.523 587.205L536.763 585.305V319.278h-75.571v300.948L697.83 765.838l40.456-60.117z m277.284-502.094L783.706 8.02 718.25 83.21l231.674 195.8 65.646-75.383zM73.409 279.199L7.952 203.82 239.82 13.173l65.457 75.189L73.409 279.199z m0 0" p-id="18778" fill="#3673ff"></path></svg>